<svg xmlns="http://www.w3.org/2000/svg" viewBox="0 0 533.5 544.3" width="24" height="24" aria-hidden="true">
  <path fill="#4285f4" d="M533.5 278.4c0-17.4-1.6-34.1-4.6-50.2H272v95.0h147.0c-6.3 34.0-25.3 62.8-54.0 82.1v68.1h87.2c51.0-47.0 81.3-116.2 81.3-195.0z"/>
  <path fill="#34a853" d="M272 544.3c73.4 0 135.1-24.3 180.1-66.0l-87.2-68.1c-24.2 16.2-55.1 25.8-92.9 25.8-71.4 0-132.0-48.1-153.7-112.9H28.5v70.8C73.1 486.5 166.2 544.3 272 544.3z"/>
  <path fill="#fbbc04" d="M118.3 322.9c-10.8-32.0-10.8-66.6 0-98.6v-70.8H28.5c-41.0 81.9-41.0 178.3 0 260.2l89.8-70.8z"/>
  <path fill="#ea4335" d="M272 107.7c39.9-.6 78.0 14.6 107.1 42.6l80.0-80.0C407.0 24.6 344.1-.2 272 0 166.2 0 73.1 57.8 28.5 146.5l89.8 70.8C140.0 155.7 200.6 107.7 272 107.7z"/>
  <path fill="none" d="M0 0h533.5v544.3H0z"/>
</svg>
